<svg width="131" height="136" viewBox="0 0 131 136" fill="none" xmlns="http://www.w3.org/2000/svg">
<path d="M97.732 124.176C96.2813 124.176 94.916 123.835 93.636 123.152C92.356 122.555 91.1613 121.744 90.052 120.72C88.516 119.184 86.724 117.051 84.676 114.32C82.628 111.589 80.5373 108.645 78.404 105.488C76.356 102.245 74.3933 99.1733 72.516 96.272C70.724 93.2853 69.2733 90.768 68.164 88.72C65.7747 89.5733 63.2147 91.024 60.484 93.072C57.7533 95.0347 55.1933 97.424 52.804 100.24C50.5 102.971 48.6227 105.829 47.172 108.816C45.7213 111.803 45.0813 114.704 45.252 117.52C45.3373 117.947 45.4653 118.416 45.636 118.928C45.8067 119.44 46.1907 119.696 46.788 119.696C47.3 119.696 47.556 120.123 47.556 120.976C47.556 121.317 47.428 121.659 47.172 122C47.0013 122.427 46.66 122.64 46.148 122.64C44.2707 122.64 42.948 122 42.18 120.72C41.412 119.355 41.028 117.776 41.028 115.984C41.028 113.168 41.668 109.755 42.948 105.744C44.228 101.648 45.892 97.3387 47.94 92.816C49.988 88.208 52.164 83.6853 54.468 79.248C56.772 74.7253 58.948 70.5867 60.996 66.832C63.044 63.0773 64.7507 60.048 66.116 57.744C67.2253 55.952 68.292 54.032 69.316 51.984C70.4253 49.8507 71.62 47.9733 72.9 46.352C73.3267 45.7547 74.052 45.3707 75.076 45.2C76.1 45.0293 76.9107 44.944 77.508 44.944C78.1907 44.944 78.9587 45.1147 79.812 45.456C80.6653 45.712 81.1347 46.3093 81.22 47.248C81.22 47.8453 81.0493 48.4853 80.708 49.168C80.452 49.7653 80.1533 50.32 79.812 50.832C75.972 57.0613 72.0467 63.248 68.036 69.392C64.1107 75.536 60.6547 81.9787 57.668 88.72C69.7 83.0027 81.22 76.5173 92.228 69.264C103.321 61.9253 114.372 54.6293 125.38 47.376C125.892 47.0347 126.404 46.736 126.916 46.48C127.513 46.224 128.111 46.096 128.708 46.096C129.135 46.096 129.519 46.224 129.86 46.48C130.201 46.6507 130.415 46.9493 130.5 47.376C130.585 48.0587 129.476 49.3387 127.172 51.216C124.868 53.008 121.839 55.1413 118.084 57.616C114.329 60.0907 110.276 62.6933 105.924 65.424C101.572 68.1547 97.3053 70.8 93.124 73.36C88.9427 75.8347 85.2733 78.0533 82.116 80.016C79.044 81.8933 76.9107 83.2587 75.716 84.112C76.0573 85.4773 76.7827 87.6107 77.892 90.512C79.0867 93.328 80.5373 96.4427 82.244 99.856C83.9507 103.269 85.7853 106.597 87.748 109.84C89.7107 112.997 91.6307 115.6 93.508 117.648C95.4707 119.696 97.22 120.72 98.756 120.72C100.207 120.72 101.316 120.208 102.084 119.184C102.937 118.075 103.535 116.709 103.876 115.088C104.303 113.467 104.559 111.888 104.644 110.352C104.729 108.731 104.729 107.408 104.644 106.384C104.644 106.213 104.601 106.043 104.516 105.872C104.516 105.701 104.516 105.531 104.516 105.36C104.516 104.763 104.772 104.464 105.284 104.464C106.052 104.464 106.692 104.933 107.204 105.872C107.801 106.811 108.271 107.835 108.612 108.944C109.039 110.053 109.252 110.907 109.252 111.504C109.423 113.637 108.953 115.685 107.844 117.648C106.82 119.525 105.412 121.061 103.62 122.256C101.913 123.536 99.9507 124.176 97.732 124.176Z" fill="#CD5959"/>
<g style="mix-blend-mode:multiply">
<g filter="url(#filter0_i_1_10)">
<path d="M129 70.253C129 105.599 100.346 134.253 65 134.253C29.6538 134.253 1 105.599 1 70.253C1 34.9068 29.6538 6.25301 65 6.25301C100.346 6.25301 129 34.9068 129 70.253Z" fill="white"/>
</g>
<path d="M129 70.253C129 105.599 100.346 134.253 65 134.253C29.6538 134.253 1 105.599 1 70.253C1 34.9068 29.6538 6.25301 65 6.25301C100.346 6.25301 129 34.9068 129 70.253Z" stroke="#7C4F4C" stroke-width="2"/>
</g>
<defs>
<filter id="filter0_i_1_10" x="0" y="5.25301" width="130" height="134" filterUnits="userSpaceOnUse" color-interpolation-filters="sRGB">
<feFlood flood-opacity="0" result="BackgroundImageFix"/>
<feBlend mode="normal" in="SourceGraphic" in2="BackgroundImageFix" result="shape"/>
<feColorMatrix in="SourceAlpha" type="matrix" values="0 0 0 0 0 0 0 0 0 0 0 0 0 0 0 0 0 0 127 0" result="hardAlpha"/>
<feOffset dy="4"/>
<feGaussianBlur stdDeviation="2"/>
<feComposite in2="hardAlpha" operator="arithmetic" k2="-1" k3="1"/>
<feColorMatrix type="matrix" values="0 0 0 0 0 0 0 0 0 0 0 0 0 0 0 0 0 0 0.25 0"/>
<feBlend mode="normal" in2="shape" result="effect1_innerShadow_1_10"/>
</filter>
</defs>
</svg>
